<svg width="32" height="32" viewBox="0 0 32 32" fill="none" xmlns="http://www.w3.org/2000/svg">
<g clip-path="url(#clip0_153_977)">
<path d="M27.9635 6.93374C28.4058 6.60072 28.4957 5.96931 28.134 5.55007C26.1612 3.26326 23.5724 1.57526 20.664 0.692279C17.4341 -0.288305 13.9757 -0.225768 10.7837 0.870939C7.59163 1.96765 4.82968 4.0423 2.89313 6.79795C0.956571 9.55359 -0.0553046 12.849 0.00233114 16.2124C0.0599669 19.5758 1.18416 22.8349 3.214 25.523C5.24384 28.2112 8.07527 30.1907 11.303 31.1783C14.5308 32.1658 17.9893 32.1107 21.1837 31.0208C24.0601 30.0395 26.5895 28.2644 28.4829 25.9119C28.83 25.4805 28.7186 24.8526 28.2652 24.5349L24.1687 21.6643C23.7175 21.3482 23.0995 21.4609 22.7338 21.8729C21.7061 23.0308 20.3908 23.9084 18.9123 24.4128C17.1176 25.0251 15.1745 25.0561 13.3611 24.5013C11.5477 23.9465 9.95697 22.8344 8.81656 21.3241C7.67616 19.8138 7.04456 17.9828 7.01218 16.0932C6.9798 14.2035 7.54829 12.3521 8.63629 10.8039C9.72428 9.25576 11.276 8.09017 13.0694 7.47402C14.8627 6.85787 16.8057 6.82273 18.6203 7.37365C20.1153 7.82751 21.4599 8.65996 22.5268 9.78226C22.9063 10.1815 23.5277 10.2731 23.9678 9.94181L27.9635 6.93374Z" fill="#EDECFF"/>
<path d="M10.8179 0.871353C14.0126 -0.228659 17.4734 -0.288328 20.7046 0.699478C23.6163 1.58966 26.2075 3.28907 28.1792 5.59108C28.5385 6.01054 28.4474 6.64054 28.0063 6.97292L27.0483 7.6946C26.6073 8.02697 25.9825 7.93651 25.6167 7.52272C24.0564 5.75763 22.0343 4.45161 19.769 3.75905C17.1842 2.96886 14.4156 3.01772 11.8599 3.89772C9.30405 4.77776 7.09193 6.44423 5.5415 8.65846C3.99133 10.8725 3.18192 13.5205 3.229 16.2229C3.27618 18.9256 4.17744 21.5446 5.8042 23.7034C7.43095 25.8622 9.69971 27.4502 12.2847 28.2405C12.3536 28.2616 12.4235 28.2792 12.4927 28.2991L15.2544 18.7747L15.2954 18.6282C15.3069 18.5866 15.3188 18.5452 15.3325 18.5051L15.5249 17.844L15.6802 17.888C16.3032 17.1319 17.4359 16.9033 18.3247 17.4895L21.9253 19.8655C22.8472 20.4736 23.1147 21.7346 22.3198 22.5012C21.4346 23.3546 20.3794 24.0239 19.2153 24.4612C18.0512 24.8985 16.8165 25.09 15.5884 25.0305C15.4252 25.0226 15.2734 24.9879 15.1323 24.9368L14.0581 28.6448C16.1084 28.964 18.2147 28.7842 20.1938 28.1028C22.4334 27.3317 24.409 25.9562 25.9067 24.138C26.2579 23.7116 26.8791 23.5985 27.3315 23.9153L28.314 24.6038C28.7663 24.9205 28.879 25.5461 28.5347 25.9778C26.6445 28.3473 24.1147 30.1369 21.2358 31.1282C18.0412 32.2282 14.5802 32.2889 11.3491 31.301C8.1179 30.3132 5.28199 28.3276 3.24854 25.6292C1.21518 22.9308 0.0888317 19.6578 0.0297852 16.2796C-0.0291841 12.9012 0.982374 9.59033 2.92041 6.82253C4.85844 4.05475 7.62311 1.9714 10.8179 0.871353Z" fill="black"/>
</g>
<defs>
<clipPath id="clip0_153_977">
<rect width="32" height="32" fill="white"/>
</clipPath>
</defs>
</svg>
